<?xml version="1.0" encoding="UTF-8" standalone="no"?>
<!-- Created with Inkscape (http://www.inkscape.org/) -->

<svg
   version="1.1"
   id="svg1"
   width="108"
   height="108"
   viewBox="0 0 108 108"
   sodipodi:docname="gpu-symbolic.svg"
   inkscape:version="1.3.2 (091e20ef0f, 2023-11-25)"
   xmlns:inkscape="http://www.inkscape.org/namespaces/inkscape"
   xmlns:sodipodi="http://sodipodi.sourceforge.net/DTD/sodipodi-0.dtd"
   xmlns="http://www.w3.org/2000/svg"
   xmlns:svg="http://www.w3.org/2000/svg">
  <defs
     id="defs1" />
  <sodipodi:namedview
     id="namedview1"
     pagecolor="#6f6f6f"
     bordercolor="#000000"
     borderopacity="0.25"
     inkscape:showpageshadow="2"
     inkscape:pageopacity="0.0"
     inkscape:pagecheckerboard="0"
     inkscape:deskcolor="#d1d1d1"
     showgrid="false"
     inkscape:zoom="7.3397687"
     inkscape:cx="55.110729"
     inkscape:cy="64.034716"
     inkscape:window-width="2508"
     inkscape:window-height="1432"
     inkscape:window-x="0"
     inkscape:window-y="0"
     inkscape:window-maximized="0"
     inkscape:current-layer="svg1" />
  <g
     id="g2"
     transform="matrix(0.99893805,0,0,0.99893805,-8.5128578,-11.201106)">
    <circle
       style="display:inline;fill:#ffffff;stroke-width:0.58613"
       id="circle2"
       cx="83.544762"
       cy="66.08548"
       r="9.1276808" />
    <path
       id="rect21"
       style="fill:#ffffff;stroke-width:0.995843"
       d="m 30.796875,34.894531 c -6.696118,0 -12.085937,5.391773 -12.085937,12.087891 v 38.207031 c 0,6.696118 5.389819,12.085938 12.085937,12.085938 h 73.753905 c 6.69612,0 12.08594,-5.38982 12.08594,-12.085938 V 46.982422 c 0,-6.696118 -5.38982,-12.087891 -12.08594,-12.087891 z M 83.544922,50.511719 A 15.572804,15.572804 0 0 1 99.117188,66.085938 15.572804,15.572804 0 0 1 83.544922,81.658203 15.572804,15.572804 0 0 1 67.972656,66.085938 15.572804,15.572804 0 0 1 83.544922,50.511719 Z" />
    <rect
       style="fill:#ffffff;stroke-width:0.658796"
       id="rect22"
       width="42.856728"
       height="62.381294"
       x="18.710653"
       y="34.894833"
       rx="0" />
    <rect
       style="fill:#ffffff;stroke-width:0.933947"
       id="rect23"
       width="7.2571454"
       height="17.917709"
       x="18.711"
       y="90.456131"
       ry="2" />
    <rect
       style="fill:#ffffff;stroke-width:0.966324"
       id="rect24"
       width="48.787354"
       height="13.831649"
       x="51.524902"
       y="93.012451"
       ry="1.8675644" />
    <rect
       style="fill:#ffffff"
       id="rect1"
       width="8.3176746"
       height="15.143582"
       x="18.711"
       y="22.167"
       ry="2" />
    <rect
       style="fill:#ffffff;stroke-width:0.887038"
       id="rect2"
       width="15.388794"
       height="8.3993673"
       x="8.5219078"
       y="22.167"
       ry="2" />
  </g>
</svg>
